<svg xmlns="http://www.w3.org/2000/svg" width="24" height="24" viewBox="0 0 24 24" fill="none">
  <path d="M12 2.5A9.5 9.5 0 0 0 9 21c.5.1.7-.2.7-.5v-1.7c-2.6.6-3.2-1.2-3.2-1.2-.4-1.1-1-1.4-1-1.4-.9-.6 0-.6 0-.6 1 0 1.5 1 1.5 1 .9 1.5 2.3 1.1 2.9.8 0-.6.3-1.1.6-1.4-2.1-.2-4.3-1-4.3-4.6 0-1 .4-1.9 1-2.5 0-.3-.4-1.2.1-2.5 0 0 .8-.3 2.7 1a9.3 9.3 0 0 1 4.8 0c1.9-1.3 2.7-1 2.7-1 .5 1.3.2 2.2.1 2.5.6.6 1 1.5 1 2.5 0 3.6-2.2 4.4-4.3 4.6.3.3.6.9.6 1.8v2.7c0 .3.2.6.7.5A9.5 9.5 0 0 0 12 2.5z" fill="#2b2724"></path>
</svg>